<svg width="17" height="17" viewBox="0 0 17 17" fill="none" xmlns="http://www.w3.org/2000/svg">
<g clip-path="url(#clip0_34_2)">
<path d="M14.7838 15.5L11.4645 12.0794C10.9578 12.5186 10.3669 12.8606 9.69192 13.1056C9.01693 13.3505 8.29868 13.473 7.53716 13.473C5.7101 13.473 4.16381 12.8395 2.89829 11.5726C1.63276 10.3057 1 8.77703 1 6.98649C1 5.19595 1.63345 3.66723 2.90034 2.40034C4.16723 1.13345 5.70017 0.5 7.49916 0.5C9.29814 0.5 10.8269 1.13345 12.0853 2.40034C13.3438 3.66723 13.973 5.19721 13.973 6.99029C13.973 7.7141 13.8547 8.41385 13.6182 9.08953C13.3818 9.7652 13.027 10.3986 12.5541 10.9899L16 14.2838L14.7838 15.5ZM7.51182 11.9527C8.88429 11.9527 10.0509 11.4671 11.0116 10.4958C11.9723 9.52449 12.4527 8.35473 12.4527 6.98649C12.4527 5.61824 11.9723 4.44848 11.0116 3.4772C10.0509 2.50591 8.88429 2.02027 7.51182 2.02027C6.12529 2.02027 4.94672 2.50591 3.97613 3.4772C3.00556 4.44848 2.52027 5.61824 2.52027 6.98649C2.52027 8.35473 3.00556 9.52449 3.97613 10.4958C4.94672 11.4671 6.12529 11.9527 7.51182 11.9527Z" fill="white" stroke="white"/>
</g>
<defs>
<clipPath id="clip0_34_2">
<rect width="17" height="17" fill="white"/>
</clipPath>
</defs>
</svg>
