<svg width="32" height="32" viewBox="0 0 32 32" fill="none" xmlns="http://www.w3.org/2000/svg">
<g clip-path="url(#clip0_27_2)">
<circle cx="16" cy="16" r="15" fill="white" stroke="black" stroke-width="2"/>
<path d="M10.0955 12.9077L9.31031 8.51554C8.96679 6.74958 6.29226 7.09239 6.48856 9.20257C6.48856 9.20257 8.01586 17.8193 8.23476 20.7244V20.6239C8.44692 24.7743 12.1062 27.4308 16.2555 27.2186C18.6487 27.0861 20.9102 26.0809 22.6121 24.3933C24.0693 22.8499 27.6491 18.6325 27.6491 18.6325C28.3797 17.5547 27.813 15.8887 27.2492 16.2989L22.3171 18.6217L22.4425 18.5797C21.5013 18.9121 21.2492 17.9783 21.3334 17.3058L22.1622 6.35876C22.3692 3.70154 19.3128 3.77334 19.3128 5.98104L18.8552 12.147L15.0556 12.4769L14.8221 12.713L14.5564 12.5203L10.0955 12.9077Z" fill="#FF0000"/>
<path d="M10.0955 12.9077L9.31031 8.51554C8.96679 6.74958 6.29226 7.09239 6.48856 9.20257C6.48856 9.20257 8.01586 17.8193 8.23476 20.7244V20.6239C8.44692 24.7743 12.1062 27.4308 16.2555 27.2186C18.6487 27.0861 20.9102 26.0809 22.6121 24.3933C24.0693 22.8499 27.6491 18.6325 27.6491 18.6325C28.3797 17.5547 27.813 15.8887 27.2492 16.2989L22.3171 18.6217L22.4425 18.5797C21.5013 18.9121 21.2492 17.9783 21.3334 17.3058L22.1622 6.35876C22.3692 3.70154 19.3128 3.77334 19.3128 5.98104L18.8552 12.147" stroke="black" stroke-width="1.5" stroke-linecap="round" stroke-linejoin="round"/>
<path d="M14.822 13.7581C14.9151 12.9133 15.5129 12.4197 16.3169 12.4016C17.0682 12.3848 17.864 12.7776 17.8712 13.6883C17.8712 13.6883 17.9486 16.4207 17.9337 16.5561C17.8406 17.4009 17.0803 18.0103 16.2355 17.9172C15.3907 17.8242 14.9078 17.0543 14.8744 16.2191L14.822 13.7581Z" stroke="black" stroke-width="1.5" stroke-linecap="round" stroke-linejoin="round"/>
<path d="M11.7085 13.7581C11.8016 12.9133 12.3994 12.4197 13.2033 12.4016C13.9547 12.3848 14.7505 12.7776 14.7576 13.6883C14.7576 13.6883 14.8351 16.4207 14.8201 16.5561C14.7271 17.4009 13.9668 18.0103 13.122 17.9172C12.2772 17.8242 11.7943 17.0543 11.7609 16.2191L11.7085 13.7581Z" stroke="black" stroke-width="1.5" stroke-linecap="round" stroke-linejoin="round"/>
</g>
<defs>
<clipPath id="clip0_27_2">
<rect width="32" height="32" fill="white"/>
</clipPath>
</defs>
</svg>
