<svg width="32" height="32" viewBox="0 0 32 32" fill="none" xmlns="http://www.w3.org/2000/svg">
<g clip-path="url(#clip0_27_2)">
<circle cx="16" cy="16" r="15.5" fill="white" stroke="black"/>
<path d="M10.0956 12.9077L9.31037 8.51554C8.96685 6.74958 6.29232 7.09239 6.48862 9.20257C6.48862 9.20257 8.01592 17.8193 8.23483 20.7244V20.6239C8.44698 24.7743 12.1063 27.4308 16.2556 27.2186C18.6487 27.0861 20.9102 26.0809 22.6122 24.3933C24.0694 22.8499 27.6492 18.6325 27.6492 18.6325C28.3798 17.5547 27.8131 15.8887 27.2493 16.2989L22.3171 18.6217L22.4425 18.5797C21.5013 18.9121 21.2492 17.9783 21.3335 17.3058L22.1623 6.35876C22.3693 3.70154 19.3128 3.77334 19.3128 5.98104L18.8553 12.147L15.0557 12.4769L14.8221 12.713L14.5565 12.5203L10.0956 12.9077Z" fill="#FF0000"/>
<path d="M10.0956 12.9077L9.31037 8.51554C8.96685 6.74958 6.29232 7.09239 6.48862 9.20257C6.48862 9.20257 8.01592 17.8193 8.23483 20.7244V20.6239C8.44698 24.7743 12.1063 27.4308 16.2556 27.2186C18.6487 27.0861 20.9102 26.0809 22.6122 24.3933C24.0694 22.8499 27.6492 18.6325 27.6492 18.6325C28.3798 17.5547 27.8131 15.8887 27.2493 16.2989L22.3171 18.6217L22.4425 18.5797C21.5013 18.9121 21.2492 17.9783 21.3335 17.3058L22.1623 6.35876C22.3693 3.70154 19.3128 3.77334 19.3128 5.98104L18.8553 12.147" stroke="black" stroke-linecap="round" stroke-linejoin="round"/>
<path d="M14.8221 13.7581C14.9152 12.9133 15.513 12.4197 16.3169 12.4016C17.0683 12.3848 17.8641 12.7776 17.8712 13.6883C17.8712 13.6883 17.9486 16.4207 17.9337 16.5561C17.8406 17.4009 17.0804 18.0103 16.2356 17.9172C15.3908 17.8242 14.9079 17.0543 14.8745 16.2191L14.8221 13.7581Z" stroke="black" stroke-linecap="round" stroke-linejoin="round"/>
<path d="M11.7086 13.7581C11.8016 12.9133 12.3994 12.4197 13.2034 12.4016C13.9547 12.3848 14.7506 12.7776 14.7577 13.6883C14.7577 13.6883 14.8351 16.4207 14.8202 16.5561C14.7271 17.4009 13.9669 18.0103 13.122 17.9172C12.2773 17.8242 11.7944 17.0543 11.7609 16.2191L11.7086 13.7581Z" stroke="black" stroke-linecap="round" stroke-linejoin="round"/>
</g>
<defs>
<clipPath id="clip0_27_2">
<rect width="32" height="32" fill="white"/>
</clipPath>
</defs>
</svg>
