<svg width="26" height="26" viewBox="0 0 26 26" fill="none" xmlns="http://www.w3.org/2000/svg">
<g clip-path="url(#clip0_3_9)">
<path d="M8.125 1.08333C4.2426 1.08333 1.08334 4.24259 1.08334 8.125V17.875C1.08334 21.7574 4.2426 24.9167 8.125 24.9167H17.875C21.7574 24.9167 24.9167 21.7574 24.9167 17.875V8.125C24.9167 4.24259 21.7574 1.08333 17.875 1.08333H8.125ZM8.125 2.16667H17.875C21.1718 2.16667 23.8333 4.82815 23.8333 8.125V17.875C23.8333 21.1718 21.1718 23.8333 17.875 23.8333H8.125C4.82816 23.8333 2.16667 21.1718 2.16667 17.875V8.125C2.16667 4.82815 4.82816 2.16667 8.125 2.16667ZM19.5 5.41667C19.2127 5.41667 18.9371 5.5308 18.734 5.73397C18.5308 5.93713 18.4167 6.21268 18.4167 6.5C18.4167 6.78732 18.5308 7.06287 18.734 7.26603C18.9371 7.4692 19.2127 7.58333 19.5 7.58333C19.7873 7.58333 20.0629 7.4692 20.266 7.26603C20.4692 7.06287 20.5833 6.78732 20.5833 6.5C20.5833 6.21268 20.4692 5.93713 20.266 5.73397C20.0629 5.5308 19.7873 5.41667 19.5 5.41667ZM13 7.04167C9.71572 7.04167 7.04167 9.71572 7.04167 13C7.04167 16.2843 9.71572 18.9583 13 18.9583C16.2843 18.9583 18.9583 16.2843 18.9583 13C18.9583 9.71572 16.2843 7.04167 13 7.04167ZM13 8.125C15.6988 8.125 17.875 10.3012 17.875 13C17.875 15.6988 15.6988 17.875 13 17.875C10.3012 17.875 8.125 15.6988 8.125 13C8.125 10.3012 10.3012 8.125 13 8.125Z" fill="#666666" stroke="#666666"/>
</g>
<defs>
<clipPath id="clip0_3_9">
<rect width="26" height="26" fill="white"/>
</clipPath>
</defs>
</svg>
