<svg width="26" height="25" viewBox="0 0 26 25" fill="none" xmlns="http://www.w3.org/2000/svg">
<path d="M5.65217 24.8696H0V7.91304H5.65217V24.8696ZM2.82722 5.65217C1.26383 5.65217 0 4.38496 0 2.82496C0 1.26496 1.26609 0 2.82722 0C4.38496 0 5.65217 1.26722 5.65217 2.82496C5.65217 4.38496 4.38496 5.65217 2.82722 5.65217ZM26 24.8696H20.566V16.6174C20.566 14.6493 20.5287 12.1183 17.741 12.1183C14.9116 12.1183 14.4763 14.2616 14.4763 16.475V24.8696H9.04348V7.90061H14.2593V10.2191H14.3328C15.0585 8.88522 16.8322 7.47896 19.4774 7.47896C24.9826 7.47896 26 10.9935 26 15.5627V24.8696Z" fill="#666666"/>
</svg>
